<svg xmlns="http://www.w3.org/2000/svg" viewBox="0 0 100 100" width="100" height="100">
  <defs>
    <linearGradient id="dnaGradient" x1="0%" y1="0%" x2="100%" y2="100%">
      <stop offset="0%" style="stop-color:#667eea;stop-opacity:1" />
      <stop offset="100%" style="stop-color:#764ba2;stop-opacity:1" />
    </linearGradient>
  </defs>
  
  <!-- DNA double helix -->
  <path d="M20 20 Q30 30 40 20 Q50 10 60 20 Q70 30 80 20" 
        stroke="url(#dnaGradient)" 
        stroke-width="3" 
        fill="none"/>
  
  <path d="M20 40 Q30 50 40 40 Q50 30 60 40 Q70 50 80 40" 
        stroke="url(#dnaGradient)" 
        stroke-width="3" 
        fill="none"/>
  
  <path d="M20 60 Q30 70 40 60 Q50 50 60 60 Q70 70 80 60" 
        stroke="url(#dnaGradient)" 
        stroke-width="3" 
        fill="none"/>
  
  <path d="M20 80 Q30 90 40 80 Q50 70 60 80 Q70 90 80 80" 
        stroke="url(#dnaGradient)" 
        stroke-width="3" 
        fill="none"/>
  
  <!-- Connecting lines -->
  <line x1="25" y1="25" x2="25" y2="35" stroke="url(#dnaGradient)" stroke-width="2"/>
  <line x1="35" y1="25" x2="35" y2="35" stroke="url(#dnaGradient)" stroke-width="2"/>
  <line x1="45" y1="25" x2="45" y2="35" stroke="url(#dnaGradient)" stroke-width="2"/>
  <line x1="55" y1="25" x2="55" y2="35" stroke="url(#dnaGradient)" stroke-width="2"/>
  <line x1="65" y1="25" x2="65" y2="35" stroke="url(#dnaGradient)" stroke-width="2"/>
  <line x1="75" y1="25" x2="75" y2="35" stroke="url(#dnaGradient)" stroke-width="2"/>
  
  <line x1="25" y1="45" x2="25" y2="55" stroke="url(#dnaGradient)" stroke-width="2"/>
  <line x1="35" y1="45" x2="35" y2="55" stroke="url(#dnaGradient)" stroke-width="2"/>
  <line x1="45" y1="45" x2="45" y2="55" stroke="url(#dnaGradient)" stroke-width="2"/>
  <line x1="55" y1="45" x2="55" y2="55" stroke="url(#dnaGradient)" stroke-width="2"/>
  <line x1="65" y1="45" x2="65" y2="55" stroke="url(#dnaGradient)" stroke-width="2"/>
  <line x1="75" y1="45" x2="75" y2="55" stroke="url(#dnaGradient)" stroke-width="2"/>
  
  <line x1="25" y1="65" x2="25" y2="75" stroke="url(#dnaGradient)" stroke-width="2"/>
  <line x1="35" y1="65" x2="35" y2="75" stroke="url(#dnaGradient)" stroke-width="2"/>
  <line x1="45" y1="65" x2="45" y2="75" stroke="url(#dnaGradient)" stroke-width="2"/>
  <line x1="55" y1="65" x2="55" y2="75" stroke="url(#dnaGradient)" stroke-width="2"/>
  <line x1="65" y1="65" x2="65" y2="75" stroke="url(#dnaGradient)" stroke-width="2"/>
  <line x1="75" y1="65" x2="75" y2="75" stroke="url(#dnaGradient)" stroke-width="2"/>
</svg> 